<svg xmlns="http://www.w3.org/2000/svg" viewBox="0 0 456.556 456.556"><path d="M383.883 184.953a13.378 13.378 0 01-9.494-3.931c-5.245-5.245-5.245-13.75 0-18.995l49.747-49.747-49.747-49.747c-5.245-5.245-5.245-13.75 0-18.995s13.743-5.245 18.988 0l59.245 59.245c5.245 5.245 5.245 13.75 0 18.995l-59.245 59.245a13.378 13.378 0 01-9.494 3.93z"/><path d="M251.658 184.953c-2.588 0-5.2-.741-7.504-2.301-6.148-4.147-7.763-12.498-3.612-18.646l40.008-59.245a13.433 13.433 0 0111.127-5.91h121.829c7.417 0 13.428 6.015 13.428 13.428 0 7.413-6.011 13.428-13.428 13.428H298.811l-36.015 53.335a13.415 13.415 0 01-11.138 5.911zM135.257 357.33H13.428C6.011 357.33 0 351.315 0 343.901c0-7.413 6.011-13.428 13.428-13.428h114.695l39.424-58.377c4.154-6.141 12.498-7.77 18.642-3.609 6.148 4.147 7.763 12.498 3.612 18.646l-43.418 64.287a13.433 13.433 0 01-11.126 5.91zm248.626 59.622a13.378 13.378 0 01-9.494-3.931c-5.245-5.245-5.245-13.75 0-18.995l49.747-49.747-49.747-49.747c-5.245-5.245-5.245-13.75 0-18.995 5.245-5.245 13.743-5.245 18.988 0l59.245 59.245c5.245 5.245 5.245 13.75 0 18.995l-59.245 59.245a13.378 13.378 0 01-9.494 3.93z"/><path d="M413.506 357.707H291.677c-4.462 0-8.63-2.217-11.127-5.91L128.123 126.086H13.428C6.011 126.086 0 120.071 0 112.658c0-7.413 6.011-13.428 13.428-13.428h121.829c4.462 0 8.63 2.217 11.127 5.91l152.427 225.711h114.695c7.417 0 13.428 6.015 13.428 13.428 0 7.414-6.011 13.428-13.428 13.428z"/></svg>