<svg xmlns="http://www.w3.org/2000/svg" viewBox="0 0 512 512"><path d="M464 128h-64c-26.51 0-48 21.49-48 48v16h-32V0H137.376L32 105.376V192H0v256c0 35.346 28.654 64 64 64h400c26.51 0 48-21.49 48-48V176c0-26.51-21.49-48-48-48zM128 54.624V96H86.624L128 54.624zM64 128h96V32h128v160H64v-64zm288 352H64c-17.673 0-32-14.327-32-32V224h320v256zm128-16c0 8.837-7.163 16-16 16h-80V176c0-8.837 7.163-16 16-16h64c8.837 0 16 7.163 16 16v288z"/><path d="M80 256h224v32H80zm0 64h32v32H80zm64 0h32v32h-32zm64 0h32v32h-32zm64 0h32v32h-32zM80 384h32v32H80zm64 0h32v32h-32zm64 0h32v32h-32zm64 0h32v32h-32z"/></svg>