<svg height="824" viewBox="-19 -23 618.682 618" width="824" xmlns="http://www.w3.org/2000/svg"><path d="M442.59 296.5a136.265 136.265 0 00-99.809 42.977 208.856 208.856 0 00-131.043-45.598h-.375c-57.21.121-110.3 22.36-149.648 62.832C21.738 397.563-.121 453.398 0 513.984a12.882 12.882 0 003.625 8.868 12.345 12.345 0 008.867 3.625l327.914-.625c.75.875 1.496 1.625 2.25 2.5 43.051 45.562 111.485 56.218 166.356 25.91 54.87-30.313 82.285-93.907 66.64-154.61C560.008 338.95 505.277 296.52 442.59 296.5zM25.36 501.367c2.624-49.094 21.613-93.937 54.214-127.289 34.606-35.601 81.45-55.215 131.79-55.215h.374a184.354 184.354 0 01115.676 40.223c-27.676 42.746-29.5 97.281-4.746 141.785zm417.23 44.973c-62.094 0-112.426-50.336-112.426-112.43 0-62.086 50.332-112.426 112.426-112.426s112.426 50.34 112.426 112.426c0 62.094-50.332 112.43-112.426 112.43zM211.488 264.148c72.922 0 132.04-59.117 132.04-132.039C343.527 59.184 284.41.066 211.487.066S79.45 59.184 79.45 132.11c.07 72.891 59.145 131.97 132.04 132.04zm0-239.097c59.13 0 107.055 47.933 107.055 107.058 0 59.121-47.926 107.055-107.055 107.055-59.125 0-107.054-47.934-107.054-107.055.07-59.097 47.957-106.984 107.054-107.058zm0 0"/><path d="M484.688 395.813l-60.34 49.093-22.11-25.86c-4.484-5.245-12.367-5.858-17.61-1.374-5.245 4.484-5.858 12.371-1.374 17.617l29.98 35.098a12.562 12.562 0 009.496 4.37c2.86.032 5.641-.945 7.864-2.745l69.836-56.84c5.273-4.36 6.043-12.164 1.726-17.477-4.324-5.316-12.117-6.152-17.469-1.882zm0 0"/></svg>